<?xml version="1.0" standalone="no"?>
<!DOCTYPE svg PUBLIC "-//W3C//DTD SVG 20010904//EN"
 "http://www.w3.org/TR/2001/REC-SVG-20010904/DTD/svg10.dtd">
<svg version="1.0" xmlns="http://www.w3.org/2000/svg"
 width="500.000000pt" height="500.000000pt" viewBox="0 0 500.000000 500.000000"
 preserveAspectRatio="xMidYMid meet">
<metadata>
Created by potrace 1.16, written by Peter Selinger 2001-2019
</metadata>
<g transform="translate(0.000000,500.000000) scale(0.100000,-0.100000)"
fill="#000000" stroke="none">
<path d="M1620 4756 c-146 -14 -184 -27 -300 -106 -115 -78 -225 -199 -277
-305 -68 -136 -128 -352 -144 -518 -17 -169 -2 -283 51 -412 83 -198 133 -279
267 -432 29 -33 207 -147 303 -194 30 -15 114 -48 185 -73 329 -119 589 -286
658 -423 14 -26 37 -90 53 -141 26 -87 27 -98 16 -165 -14 -94 -56 -235 -73
-252 -12 -10 -37 -8 -139 11 -321 62 -474 84 -646 92 -222 12 -430 3 -465 -19
-13 -8 -51 -25 -85 -38 -33 -12 -85 -42 -116 -66 -57 -44 -136 -153 -157 -215
-21 -63 -24 -170 -6 -230 33 -112 35 -105 -41 -129 -37 -11 -74 -21 -81 -21
-22 0 -90 80 -123 145 -55 110 -61 229 -18 360 11 33 75 173 143 310 140 284
155 323 155 403 0 98 -61 274 -86 249 -3 -3 -1 -28 6 -56 11 -45 9 -59 -15
-143 -30 -104 -63 -188 -75 -188 -4 0 -33 -31 -63 -69 -49 -60 -78 -102 -200
-284 -34 -51 -120 -311 -142 -428 -16 -86 -15 -87 14 -260 33 -189 58 -274 93
-319 57 -71 193 -149 316 -181 42 -10 85 -27 96 -37 22 -19 103 -72 110 -72 2
0 48 -25 102 -56 54 -31 120 -67 148 -79 65 -29 394 -130 466 -144 178 -34
698 -46 920 -21 123 13 336 55 572 112 130 31 189 50 260 86 125 64 131 68
168 102 18 17 36 30 41 30 5 0 32 -15 61 -34 69 -43 145 -71 238 -85 41 -7
118 -21 170 -33 161 -34 497 -23 594 20 102 46 175 155 211 315 19 86 13 152
-21 222 -23 49 -91 112 -141 131 l-43 17 7 72 c8 98 -19 186 -86 282 -54 76
-81 97 -181 136 -195 76 -305 83 -677 42 -141 -16 -282 -25 -372 -25 -135 1
-276 12 -287 23 -3 3 5 42 17 88 28 104 30 259 5 404 -31 184 -140 361 -340
552 -178 171 -323 255 -661 383 -208 79 -235 95 -373 214 -105 90 -129 125
-167 246 -77 242 -15 577 126 680 72 52 113 62 235 57 60 -3 123 -8 140 -12
58 -13 237 -163 383 -320 32 -34 88 -62 250 -124 137 -53 199 -63 221 -36 18
21 0 40 -72 76 -80 41 -128 86 -189 181 -95 148 -135 269 -94 284 20 8 104
-21 195 -66 41 -21 94 -44 118 -51 24 -7 52 -23 62 -36 17 -22 17 -27 3 -79
-24 -94 7 -82 56 21 l30 62 57 7 c31 3 59 4 62 2 3 -3 -1 -33 -8 -66 -7 -33
-10 -63 -8 -66 3 -3 25 28 49 68 37 61 52 77 96 99 81 41 105 75 96 136 -6 41
-13 46 -98 68 -38 10 -110 39 -160 65 -49 26 -146 69 -215 95 l-125 49 -205 6
c-169 6 -219 11 -285 29 -74 21 -348 79 -405 86 -14 2 -86 -2 -160 -9z"/>
</g>
</svg>
